<?xml version="1.0" encoding="UTF-8" standalone="no"?>
<svg
   xmlns:dc="http://purl.org/dc/elements/1.1/"
   xmlns:cc="http://creativecommons.org/ns#"
   xmlns:rdf="http://www.w3.org/1999/02/22-rdf-syntax-ns#"
   xmlns:svg="http://www.w3.org/2000/svg"
   xmlns="http://www.w3.org/2000/svg"
   xmlns:sodipodi="http://sodipodi.sourceforge.net/DTD/sodipodi-0.dtd"
   xmlns:inkscape="http://www.inkscape.org/namespaces/inkscape"
   sodipodi:docname="camera.svg"
   inkscape:version="1.0 (4035a4fb49, 2020-05-01)"
   id="svg8"
   version="1.1"
   viewBox="0 0 145.14285 94.116066"
   height="94.116066mm"
   width="145.14285mm">
  <defs
     id="defs2">
    <clipPath
       id="clipPath1350"
       clipPathUnits="userSpaceOnUse">
      <rect
         y="78.052086"
         x="23.434523"
         height="94.116074"
         width="145.14285"
         id="rect1352"
         style="opacity:1;fill:#800000;stroke-width:1.165;stroke-miterlimit:4;stroke-dasharray:none" />
    </clipPath>
    <clipPath
       id="clipPath1354"
       clipPathUnits="userSpaceOnUse">
      <rect
         y="78.052086"
         x="23.434523"
         height="94.116074"
         width="145.14285"
         id="rect1356"
         style="opacity:1;fill:#800000;stroke-width:1.165;stroke-miterlimit:4;stroke-dasharray:none" />
    </clipPath>
    <clipPath
       id="clipPath1358"
       clipPathUnits="userSpaceOnUse">
      <rect
         y="78.052086"
         x="23.434523"
         height="94.116074"
         width="145.14285"
         id="rect1360"
         style="opacity:1;fill:#800000;stroke-width:1.165;stroke-miterlimit:4;stroke-dasharray:none" />
    </clipPath>
    <clipPath
       id="clipPath1362"
       clipPathUnits="userSpaceOnUse">
      <rect
         y="78.052086"
         x="23.434523"
         height="94.116074"
         width="145.14285"
         id="rect1364"
         style="opacity:1;fill:#800000;stroke-width:1.165;stroke-miterlimit:4;stroke-dasharray:none" />
    </clipPath>
    <clipPath
       id="clipPath1370"
       clipPathUnits="userSpaceOnUse">
      <rect
         y="76.918159"
         x="14.741071"
         height="94.116066"
         width="145.14285"
         id="rect1372"
         style="opacity:1;fill:#800000;stroke-width:1.165;stroke-miterlimit:4;stroke-dasharray:none" />
    </clipPath>
    <clipPath
       id="clipPath1374"
       clipPathUnits="userSpaceOnUse">
      <rect
         y="76.918159"
         x="14.741071"
         height="94.116066"
         width="145.14285"
         id="rect1376"
         style="opacity:1;fill:#800000;stroke-width:1.165;stroke-miterlimit:4;stroke-dasharray:none" />
    </clipPath>
    <clipPath
       id="clipPath1378"
       clipPathUnits="userSpaceOnUse">
      <rect
         y="76.918159"
         x="14.741071"
         height="94.116066"
         width="145.14285"
         id="rect1380"
         style="opacity:1;fill:#800000;stroke-width:1.165;stroke-miterlimit:4;stroke-dasharray:none" />
    </clipPath>
    <clipPath
       id="clipPath1382"
       clipPathUnits="userSpaceOnUse">
      <rect
         y="76.918159"
         x="14.741071"
         height="94.116066"
         width="145.14285"
         id="rect1384"
         style="opacity:1;fill:#800000;stroke-width:1.165;stroke-miterlimit:4;stroke-dasharray:none" />
    </clipPath>
    <clipPath
       id="clipPath1386"
       clipPathUnits="userSpaceOnUse">
      <rect
         y="78.052086"
         x="23.434523"
         height="94.116066"
         width="145.14285"
         id="rect1388"
         style="opacity:1;fill:#800000;stroke-width:1.165;stroke-miterlimit:4;stroke-dasharray:none" />
    </clipPath>
  </defs>
  <sodipodi:namedview
     inkscape:window-maximized="1"
     inkscape:window-y="-8"
     inkscape:window-x="-8"
     inkscape:window-height="1017"
     inkscape:window-width="1920"
     showgrid="false"
     inkscape:document-rotation="0"
     inkscape:current-layer="layer1"
     inkscape:document-units="mm"
     inkscape:cy="218.85211"
     inkscape:cx="219.12708"
     inkscape:zoom="1.4"
     inkscape:pageshadow="2"
     inkscape:pageopacity="0.0"
     borderopacity="1.0"
     bordercolor="#666666"
     pagecolor="#ffffff"
     id="base" />
  <metadata
     id="metadata5">
    <rdf:RDF>
      <cc:Work
         rdf:about="">
        <dc:format>image/svg+xml</dc:format>
        <dc:type
           rdf:resource="http://purl.org/dc/dcmitype/StillImage" />
        <dc:title></dc:title>
      </cc:Work>
    </rdf:RDF>
  </metadata>
  <g
     transform="translate(-12.318563,-77.167586)"
     id="layer1"
     inkscape:groupmode="layer"
     inkscape:label="Layer 1">
    <path
       transform="translate(-2.4225073,0.24942683)"
       clip-path="url(#clipPath1382)"
       id="path1366"
       d="M 1.3441686,123.40923 V 68.220243 h 4.0382188 4.0382189 v 55.188987 55.18898 H 5.3823874 1.3441686 Z m 161.5287514,0 V 68.220243 h 4.30744 4.30743 v 55.188987 55.18898 h -4.30743 -4.30744 z M 20.781462,161.58385 c -0.247115,-0.24711 -0.323058,-6.88883 -0.323058,-28.25377 v -27.93072 l -1.736271,-0.82865 c -3.637043,-1.7358 -4.747331,-4.938988 -2.241354,-6.466323 0.484912,-0.295544 1.57825,-0.6748 2.429642,-0.842795 l 1.547983,-0.305443 v -1.741487 c 0,-1.052195 0.17373,-2.107593 0.438928,-2.666455 0.562189,-1.184726 2.124105,-2.472965 3.255722,-2.685257 l 0.881998,-0.165464 v -2.130419 c 0,-2.065976 0.02239,-2.14023 0.740341,-2.454807 1.027863,-0.450372 17.923128,-0.443104 18.979628,0.0082 0.719869,0.307481 0.74034,0.375964 0.74034,2.476605 v 2.160381 h 3.634397 c 3.289294,0 3.634397,-0.04498 3.634397,-0.47367 0,-0.260519 -0.242293,-0.624985 -0.538429,-0.809925 -0.453538,-0.283239 -0.538429,-0.627816 -0.538429,-2.185511 0,-1.206646 0.123935,-1.952114 0.356647,-2.145249 0.196158,-0.162796 2.37808,-0.442916 4.848719,-0.622489 3.513695,-0.255385 5.612693,-0.255754 9.637269,-0.0017 2.829857,0.178642 5.251504,0.390504 5.381435,0.470806 0.129931,0.0803 0.236238,1.111828 0.236238,2.292281 0,1.592316 -0.09737,2.183643 -0.377269,2.291049 -0.207497,0.07962 -0.347381,0.348402 -0.310854,0.597283 0.0473,0.322262 0.330243,0.452512 0.983002,0.452512 h 0.916587 l 0.155291,-1.620913 c 0.190445,-1.987842 0.754358,-2.896204 2.246354,-3.618466 1.14144,-0.552562 1.275401,-0.554311 37.109614,-0.484345 35.84909,0.06999 35.96641,0.07199 36.70744,0.625282 0.40887,0.305285 0.99318,0.889351 1.29847,1.297924 0.5264,0.704504 0.56201,1.189084 0.68967,9.384849 l 0.13461,8.641986 1.57268,0.35691 c 0.86497,0.1963 1.92304,0.56388 2.35127,0.81684 1.02846,0.60753 1.68666,2.01071 1.44955,3.09023 -0.28496,1.29744 -2.22902,3.0538 -3.997,3.61111 l -1.51111,0.47633 v 24.53013 c 0,18.72003 -0.0765,24.60664 -0.32306,24.85318 -0.47038,0.47038 -129.991007,0.47038 -130.461388,0 z m 129.383368,-2.84021 -0.0796,-1.8172 -18.57581,-0.064 -18.5758,-0.064 -2.25883,0.964 c -4.11503,1.75619 -6.89172,2.32829 -11.471118,2.36347 -2.489673,0.0191 -4.760875,-0.1124 -5.922721,-0.34299 -2.053973,-0.40765 -5.883561,-1.68079 -7.443805,-2.47467 -0.940472,-0.47853 -2.336026,-0.50052 -32.507662,-0.51217 l -31.525007,-0.0122 v 1.88843 1.88843 h 64.21998 64.219983 z m -46.74387,0.61392 c 6.36165,-1.10937 11.35254,-3.68892 15.8618,-8.19818 12.43094,-12.43094 11.03506,-33.00497 -2.95192,-43.50884 -3.70247,-2.78047 -6.65286,-4.17458 -11.06984,-5.23069 -6.323856,-1.51205 -13.031731,-0.75449 -19.017863,2.14781 -9.75299,4.7286 -15.919452,14.07361 -16.429951,24.8989 -0.61547,13.05119 7.5225,24.70938 20.1912,28.92526 3.953112,1.31551 9.231928,1.69549 13.416574,0.96574 z M 93.415558,157.7209 c -5.853129,-1.25167 -10.515277,-3.86525 -14.608986,-8.18975 -4.858435,-5.13233 -7.46661,-11.60763 -7.46661,-18.5373 0,-13.07042 8.091158,-23.56902 20.840762,-27.04171 1.839196,-0.50095 2.866498,-0.59204 6.619126,-0.58689 5.18886,0.007 7.38315,0.46534 11.47463,2.39622 3.31914,1.5664 5.49745,3.08081 7.92928,5.51264 5.56471,5.56471 8.37797,12.91686 7.98332,20.86351 -0.62324,12.54952 -9.66032,23.02666 -22.05889,25.57396 -2.56768,0.52754 -8.26612,0.53249 -10.712632,0.009 z m 10.633972,-0.52717 c 4.76975,-0.89632 9.38674,-3.30552 13.12877,-6.85075 3.65557,-3.46331 5.78572,-6.7991 7.29749,-11.42775 1.44813,-4.43384 1.63232,-10.47379 0.45643,-14.96757 -2.44862,-9.35766 -9.92377,-16.84429 -19.40201,-19.43179 -1.99357,-0.54423 -2.87782,-0.62231 -6.864968,-0.60614 -5.334339,0.0216 -7.162844,0.40706 -11.357541,2.39411 -8.731607,4.1362 -14.594268,12.52619 -15.398437,22.03653 -0.837758,9.90756 3.791559,19.52267 11.964317,24.84994 6.211305,4.04873 12.886422,5.37324 20.175949,4.00342 z m -10.71062,-3.91734 c -8.701659,-2.13872 -15.52864,-9.24245 -17.300632,-18.00196 -0.710616,-3.5128 -0.446823,-8.25164 0.64551,-11.59599 3.141217,-9.61734 11.979222,-16.10727 21.981454,-16.14145 6.112358,-0.0209 11.497178,2.11099 15.977118,6.32539 4.58217,4.31057 6.91155,9.42743 7.23251,15.88733 0.55741,11.21884 -7.3121,21.39912 -18.28511,23.6543 -2.86812,0.58945 -7.571578,0.5309 -10.25085,-0.12762 z m 9.82913,-4.81132 c 6.88351,-1.7605 12.09042,-7.18453 13.51064,-14.074 2.64736,-12.8423 -8.74712,-24.24418 -21.579556,-21.59357 -5.497026,1.13544 -10.057822,4.61487 -12.549363,9.57388 -2.739921,5.45339 -2.761657,11.05568 -0.06408,16.51769 3.089574,6.25571 9.169419,10.03811 16.203802,10.08072 1.581247,0.01 3.165977,-0.16902 4.478557,-0.50472 z m -7.733373,-0.16609 c -4.113241,-0.76362 -8.395268,-3.40099 -10.814503,-6.66082 -2.51776,-3.39259 -3.664891,-6.82903 -3.658645,-10.96014 0.01268,-8.38274 5.628456,-15.49361 13.738198,-17.39572 2.73564,-0.64163 7.399213,-0.40606 9.970843,0.50366 4.3644,1.54392 8.19873,5.01542 10.16004,9.19864 1.39541,2.97621 1.73741,4.52534 1.73741,7.86972 0,4.20655 -1.09485,7.42133 -3.67505,10.79093 -4.06608,5.31008 -10.8235,7.88548 -17.458293,6.65373 z m 7.538013,-0.62296 c 5.19951,-1.35671 9.14582,-4.56553 11.46861,-9.32538 2.46608,-5.05347 2.43811,-10.44314 -0.0803,-15.47984 -1.6134,-3.2267 -4.58755,-6.20474 -7.75724,-7.76738 -6.685614,-3.29598 -14.344215,-2.17831 -19.702969,2.87538 -2.32333,2.19108 -3.624261,4.1724 -4.601908,7.00875 -3.913363,11.35343 4.392484,23.11136 16.366389,23.16861 1.514568,0.007 3.129438,-0.17277 4.307438,-0.48014 z m -6.461154,-0.0239 c -4.051446,-0.65133 -6.749692,-2.03365 -9.72352,-4.98139 -3.449734,-3.41948 -5.001571,-7.08463 -5.020733,-11.85806 -0.01898,-4.72801 1.581501,-8.65193 4.888673,-11.98559 3.511059,-3.5392 7.252975,-5.10955 12.175294,-5.10955 4.89519,0 8.5153,1.53846 12.09827,5.14145 3.31241,3.33093 4.81887,7.06499 4.82688,11.96442 0.008,4.75251 -1.52891,8.43481 -4.9513,11.86463 -1.75773,1.76154 -2.62124,2.39309 -4.46723,3.2672 -1.25858,0.59595 -2.83349,1.21035 -3.49979,1.36532 -1.80376,0.41951 -4.802031,0.57665 -6.326544,0.33156 z m 6.864974,-0.96928 c 6.97176,-2.04661 11.85076,-8.48916 11.91668,-15.73557 0.0481,-5.28171 -1.79107,-9.36115 -5.79126,-12.84586 -5.9539,-5.18665 -15.147595,-5.25356 -21.269368,-0.15479 -7.546267,6.28522 -8.065599,17.50706 -1.13248,24.47093 2.170198,2.17983 5.242919,3.8854 8.199988,4.55155 2.118635,0.47727 5.93642,0.34196 8.07644,-0.28626 z m -7.538011,-0.0378 C 90.347206,145.72686 85.2265,141.2399 83.438363,135.77957 c -0.919887,-2.809 -0.926058,-7.61954 -0.01311,-10.21662 2.474885,-7.0403 9.208986,-11.48743 16.584227,-10.95205 5.38267,0.39073 10.48693,3.70757 12.99805,8.44636 5.76272,10.87501 -2.11969,23.91848 -14.342292,23.733 -1.184544,-0.018 -2.456583,-0.0833 -2.826753,-0.14522 z m 7.017571,-0.78667 c 2.71879,-0.80739 5.13326,-2.229 6.98188,-4.11082 6.13383,-6.24399 6.12962,-15.95884 -0.01,-22.09803 -6.14619,-6.14619 -15.86733,-6.15041 -22.08991,-0.01 -2.011095,1.98468 -3.753703,5.11926 -4.294711,7.72529 -0.480069,2.31248 -0.203766,6.5681 0.555934,8.56249 1.813871,4.76183 5.383667,8.20507 10.086902,9.72929 2.368803,0.76768 6.539975,0.86346 8.769485,0.20136 z m -6.479142,-0.0214 c -4.618564,-0.77509 -9.055721,-3.97591 -11.092316,-8.00163 -1.108203,-2.19057 -1.540392,-3.7103 -1.736125,-6.10479 -0.56944,-6.96628 4.166096,-13.69987 11.078547,-15.75289 2.345524,-0.69663 6.192546,-0.65391 8.614866,0.0957 3.24541,1.00428 6.15722,3.15111 8.06052,5.94289 1.44691,2.12233 2.22273,4.19468 2.63864,7.0482 0.8305,5.69806 -2.56854,12.2508 -7.78789,15.01364 -2.89381,1.53183 -6.868371,2.24692 -9.776242,1.75892 z m 6.002622,-0.75304 c 2.5961,-0.6762 4.74892,-1.94478 6.80739,-4.01134 3.15266,-3.16506 4.61924,-6.95498 4.33491,-11.20222 -0.873,-13.04056 -16.712539,-18.7358 -25.55045,-9.18688 -7.600501,8.21196 -3.725984,21.46247 7.130676,24.3863 1.872159,0.5042 5.369924,0.51099 7.277474,0.0141 z m -5.329585,-0.0423 c -4.424475,-0.66285 -7.974239,-2.93809 -10.408894,-6.67164 -2.283422,-3.50162 -2.864468,-8.3043 -1.482476,-12.25349 1.60254,-4.57943 5.367102,-8.10684 9.955677,-9.32851 1.777338,-0.4732 5.573698,-0.47919 7.319988,-0.0115 8.79318,2.35476 13.20176,12.24661 9.14944,20.52925 -1.49143,3.04837 -5.04792,6.06525 -8.35383,7.08634 -1.73727,0.53659 -4.791361,0.85762 -6.179905,0.64959 z m 3.903615,-0.91067 c 4.91767,-0.76685 9.33859,-4.64603 10.80794,-9.48356 0.74874,-2.46506 0.61429,-6.5688 -0.29166,-8.90207 -1.35911,-3.50039 -4.99771,-6.88922 -8.58747,-7.99798 -2.33183,-0.72023 -5.848236,-0.71559 -8.20006,0.0108 -6.43761,1.98838 -10.417732,8.56003 -9.241375,15.2586 1.108526,6.31233 6.5959,11.07361 13.08969,11.35764 0.37017,0.0162 1.460489,-0.0933 2.422935,-0.24343 z m -5.839812,-0.77677 c -5.605123,-1.60364 -9.512851,-6.81224 -9.502228,-12.66549 0.01537,-8.46564 8.194604,-14.89421 16.2731,-12.79003 3.58995,0.93506 6.76757,3.38263 8.41575,6.48223 2.17242,4.08554 2.21759,8.27909 0.13448,12.48637 -0.8942,1.80603 -3.49058,4.45678 -5.33535,5.44709 -2.83659,1.52273 -6.840585,1.93967 -9.985752,1.03983 z m 6.501662,-0.43536 c 6.35482,-1.65523 10.44736,-7.63966 9.55332,-13.96964 -0.38751,-2.74369 -1.52627,-4.97741 -3.58915,-7.04029 -3.97735,-3.97735 -9.417647,-4.87583 -14.40762,-2.37944 -4.473989,2.23824 -7.44012,7.53856 -6.899701,12.3294 0.857284,7.59991 8.228213,12.91317 15.343151,11.05997 z m -6.075094,-0.51643 c -6.459939,-1.78147 -10.328375,-8.82744 -8.34509,-15.19974 2.220536,-7.13459 10.103177,-10.59899 16.867704,-7.4133 3.04501,1.43401 5.79419,4.87844 6.56605,8.22655 0.58843,2.55243 0.16372,5.91578 -1.04661,8.28821 -0.7428,1.45603 -3.09867,3.95739 -4.50146,4.77949 -2.72308,1.59583 -6.59515,2.13106 -9.540594,1.31879 z m 6.843484,-2.57539 c 1.95678,-0.73213 4.24661,-2.80474 5.15901,-4.6696 2.00079,-4.08947 1.09886,-8.78563 -2.26277,-11.7818 -1.94467,-1.73326 -3.86317,-2.46221 -6.4802,-2.46221 -4.772287,0 -8.72651,3.25128 -9.687367,7.96526 -1.012115,4.96544 2.394928,10.20679 7.465248,11.48444 1.45104,0.36564 4.033219,0.12722 5.806079,-0.53609 z m -5.984986,-0.40742 c -1.912182,-0.53505 -2.967754,-1.21165 -4.433253,-2.84164 -2.288634,-2.54551 -2.85932,-6.40399 -1.410181,-9.53439 l 0.747757,-1.61528 0.372143,1.07686 c 0.720863,2.08593 2.55819,2.85369 4.466992,1.86662 1.011355,-0.523 1.686949,-2.02355 1.458744,-3.23999 -0.169844,-0.90535 -1.481146,-2.26103 -2.187016,-2.26103 -0.757341,0 -0.362424,-0.45942 0.657624,-0.76503 4.041866,-1.21097 8.739956,0.8246 10.762926,4.66331 0.62488,1.18575 0.71234,1.66491 0.71347,3.90894 0.001,2.40422 -0.0541,2.65976 -0.92319,4.2627 -2.02892,3.74222 -6.25059,5.59128 -10.226016,4.47893 z m 5.820756,-1.10546 c 2.55306,-1.20982 4.93369,-4.68037 4.9218,-7.17514 -0.007,-1.40093 -0.43546,-1.74632 -0.60439,-0.48684 -0.50161,3.73979 -4.52419,7.39677 -8.536428,7.76059 -1.770909,0.16058 -1.871469,0.28649 -0.493144,0.61744 1.305249,0.31341 3.122432,0.0373 4.712162,-0.71605 z m -2.14545,-6.01177 c 1.13038,-1.05311 0.99165,-2.53174 -0.318052,-3.38989 -1.319439,-0.86453 -3.109945,0.21818 -3.109945,1.88056 0,1.7107 2.181066,2.67101 3.427997,1.50933 z m 29.1955,8.86292 c 1.10803,-2.2022 1.64408,-5.64698 1.61101,-10.35271 -0.0156,-2.22102 -0.18339,-4.76149 -0.37284,-5.6455 -0.33162,-1.54739 -0.40899,-1.65223 -2.07684,-2.81415 -1.27799,-0.89032 -1.67917,-1.06896 -1.52951,-0.68105 0.44387,1.15043 0.9853,3.96543 1.24568,6.47643 0.46949,4.52765 -0.39034,10.04163 -2.19493,14.07582 -0.42313,0.94591 -0.76932,1.81091 -0.76932,1.92222 0,0.11132 0.75717,-0.19121 1.68259,-0.67228 1.44472,-0.75102 1.7846,-1.07742 2.40416,-2.30878 z m -56.85281,2.82985 c 0,-0.079 -0.30138,-0.7383 -0.669733,-1.46521 -1.035001,-2.04247 -1.974579,-5.63722 -2.330031,-8.91452 -0.363725,-3.35354 -0.06492,-7.1245 0.816366,-10.30269 0.272696,-0.98343 0.445685,-1.78804 0.38442,-1.78804 -0.06126,0 -0.764454,0.41776 -1.562645,0.92836 -1.885727,1.20628 -2.051082,1.76931 -2.21786,7.5519 -0.103653,3.59388 -0.03452,5.09677 0.321967,6.99884 0.759632,4.05316 1.530205,5.39025 3.776836,6.55353 1.112833,0.57622 1.48068,0.68499 1.48068,0.43783 z m -5.230961,-33.90882 c 2.599913,-1.52365 3.622267,-4.80314 2.410588,-7.73264 -0.177784,-0.42983 0.615602,-0.46678 11.881606,-0.55325 7.876314,-0.0605 13.003595,-0.21515 14.752165,-0.44506 6.024402,-0.79214 13.517712,1.10675 18.965032,4.80595 l 1.61243,1.09498 h 16.70608 16.70608 v -9.948267 c 0,-6.579564 -0.0989,-10.165399 -0.29216,-10.589481 -0.16068,-0.352666 -0.63368,-0.842952 -1.05109,-1.089526 -0.69789,-0.412251 -3.62511,-0.447996 -36.38833,-0.444346 -27.945743,0.0031 -35.774544,0.07649 -36.302436,0.340263 -0.984504,0.491925 -1.61438,1.956905 -1.61487,3.755896 l -4.17e-4,1.54259 -25.104261,0.0727 c -23.030234,0.06669 -25.173242,0.110484 -25.939229,0.530063 -1.656444,0.907339 -1.847534,1.516049 -1.948133,6.205695 l -0.09096,4.240123 h 18.628261 c 17.639729,0 18.617398,0.025 18.423507,0.47113 -0.112618,0.25912 -0.259278,1.26908 -0.325914,2.24437 -0.14043,2.05531 0.350076,3.29044 1.896439,4.77534 1.88493,1.81002 4.725882,2.1005 7.075608,0.72347 z m -5.403015,0.0413 c -1.194053,-0.54233 -2.754375,-2.41039 -3.106936,-3.7197 -0.170036,-0.63147 -0.230867,-1.63779 -0.135186,-2.23628 0.213258,-1.33392 1.247199,-3.15402 2.114522,-3.72231 0.510032,-0.33419 0.676663,-0.735173 0.799309,-1.923497 0.222594,-2.156742 1.302304,-4.391197 2.234982,-4.625284 0.4038,-0.101347 0.927438,-0.06862 1.163642,0.07273 0.686931,0.411071 1.634676,2.559092 1.925277,4.363559 0.222555,1.381935 0.439469,1.836062 1.277098,2.673692 1.749784,1.74978 2.119596,4.15921 0.987172,6.43168 -0.988957,1.98458 -2.385984,2.87445 -4.66943,2.97429 -1.092026,0.0477 -2.095744,-0.0642 -2.59045,-0.28888 z m 3.818453,-2.04844 c 0.674873,-0.3064 1.295321,-0.83819 1.547984,-1.32679 0.951781,-1.84054 0.174817,-4.29185 -1.594682,-5.0312 -1.202487,-0.50242 -1.861624,-0.48891 -3.022512,0.062 -2.611885,1.23942 -2.58855,5.11611 0.03798,6.30903 1.368773,0.62167 1.635855,0.62053 3.031232,-0.013 z m -1.036608,-8.02437 c 0.741011,-1.435182 0.460543,-5.182385 -0.387884,-5.182385 -0.841651,0 -1.232642,3.041753 -0.617729,4.80569 0.332418,0.953575 0.646928,1.071395 1.005613,0.376695 z m 53.256511,4.55544 c -0.39298,-0.43424 -0.44554,-1.41168 -0.44554,-8.285744 0,-6.617945 0.0632,-7.883673 0.41908,-8.391758 l 0.41909,-0.598331 h 11.40713 c 10.01116,0 11.45889,0.05177 11.83017,0.423052 0.3657,0.3657 0.42305,1.512729 0.42305,8.461029 0,6.948302 -0.0573,8.095332 -0.42305,8.461032 -0.37125,0.37125 -1.81661,0.42305 -11.80371,0.42305 -10.68351,0 -11.40796,-0.0302 -11.82622,-0.49233 z m 22.70958,-0.85311 c 0.0755,-2.7e-4 0.13607,-3.3927 0.13461,-7.538551 l -0.003,-7.537916 -10.9705,-9.1e-5 -10.97049,-9.2e-5 v 7.523939 7.523941 l 1.41338,0.0814 c 0.77735,0.0448 5.6535,0.0514 10.83588,0.0147 5.18238,-0.0367 9.48429,-0.067 9.55979,-0.0673 z m -19.03912,-1.1448 c -0.47129,-0.33315 -0.98446,-0.88401 -1.14037,-1.22413 -0.16324,-0.35609 -0.28349,-2.565282 -0.28349,-5.208145 0,-7.163183 -0.28193,-6.96156 9.73241,-6.96014 6.63994,9.43e-4 7.15049,0.03575 7.98465,0.544325 1.41312,0.861551 1.66639,1.842546 1.66639,6.454248 0,4.611702 -0.25327,5.592702 -1.66639,6.454252 -0.83563,0.50947 -1.34417,0.54338 -8.16373,0.54432 -7.10938,10e-4 -7.29181,-0.0126 -8.12947,-0.60473 z m 11.98279,-4.864973 c 0.42362,-1.171511 0.4079,-1.882108 -0.0668,-3.018196 l -0.39008,-0.933604 h -3.35259 -3.35258 l -0.29555,0.847816 c -0.36581,1.049358 -0.37925,2.396774 -0.033,3.307484 l 0.26255,0.690562 h 3.45237 3.45237 z M 79.201028,97.510788 c -0.217203,-0.217203 -0.323058,-1.438505 -0.323058,-3.727279 0,-2.956054 0.06481,-3.462878 0.492324,-3.849768 0.435836,-0.394428 1.450358,-0.445547 8.842355,-0.445547 7.747477,0 8.382185,0.03553 8.79558,0.492323 0.365106,0.403437 0.445548,1.10651 0.445548,3.89414 0,3.087746 -0.04808,3.427543 -0.520731,3.680503 -0.782405,0.418731 -17.310275,0.377371 -17.732018,-0.04437 z m 17.655811,-3.542372 c 0.05062,-2.12351 -0.02802,-3.317849 -0.234873,-3.567093 -0.422476,-0.509052 -16.376297,-0.557854 -16.882509,-0.05164 -0.348415,0.348414 -0.474176,6.435666 -0.139865,6.769977 0.100756,0.100753 4.007733,0.151231 8.68217,0.112171 l 8.498978,-0.07102 z m -16.303678,2.638699 c -0.541119,-0.379016 -0.598333,-0.645321 -0.598333,-2.785029 0,-3.463556 -0.525038,-3.257034 8.280317,-3.257034 6.342986,0 7.352183,0.05651 7.72844,0.432771 0.347101,0.3471 0.417525,0.918574 0.355748,2.886842 -0.07256,2.311841 -0.116028,2.473763 -0.750058,2.793835 -0.488792,0.246754 -2.554362,0.34085 -7.54541,0.343733 -5.788802,0.0033 -6.966713,-0.06211 -7.470704,-0.415118 z m 1.28617,-0.657772 c 0,-0.148068 -0.128297,-0.269214 -0.285104,-0.269214 -0.156807,0 -0.21023,0.121146 -0.118718,0.269214 0.09151,0.148068 0.219808,0.269215 0.285103,0.269215 0.0653,0 0.118719,-0.121147 0.118719,-0.269215 z m 1.346073,-0.05769 c 0,-0.116338 -0.242294,-0.211524 -0.53843,-0.211524 -0.296136,0 -0.538429,0.09519 -0.538429,0.211524 0,0.116341 0.242293,0.211527 0.538429,0.211527 0.296136,0 0.53843,-0.09519 0.53843,-0.211527 z m 2.108809,-0.07688 c 0.07406,-0.07406 -0.30956,-0.134645 -0.852474,-0.134645 -0.542917,0 -0.987121,0.105254 -0.987121,0.233901 0,0.236112 1.590016,0.150322 1.839595,-0.09926 z m 1.350644,-0.663461 c -0.0345,-0.813958 -0.05659,-0.844604 -0.152489,-0.211524 -0.06168,0.407187 -0.218298,0.74034 -0.348027,0.74034 -0.129732,0 -0.185893,-0.259545 -0.124802,-0.576763 0.06109,-0.31722 -0.0027,-0.771519 -0.141879,-1.009555 -0.184773,-0.316139 -0.255159,-0.103667 -0.261138,0.788289 -0.007,1.044333 0.06975,1.22108 0.530242,1.22108 0.444514,0 0.531395,-0.16603 0.498093,-0.951867 z m 0.84798,0.79803 c 0,-0.148068 -0.128297,-0.269214 -0.285104,-0.269214 -0.156806,0 -0.210229,0.121146 -0.118718,0.269214 0.09151,0.148068 0.219808,0.269215 0.285104,0.269215 0.0653,0 0.118718,-0.121147 0.118718,-0.269215 z M 88.834788,94.8821 c -0.0028,-0.820921 -0.08283,-1.096745 -0.244307,-0.841672 -0.132101,0.208674 -0.177859,0.541827 -0.101682,0.74034 0.08401,0.218929 -0.05818,0.368375 -0.361426,0.379855 -0.460685,0.01744 -0.457665,0.03708 0.0385,0.250291 0.460417,0.197846 0.470168,0.234112 0.0673,0.250292 -0.656897,0.02638 -0.59361,0.441974 0.0673,0.441974 0.459896,0 0.537829,-0.178101 0.534307,-1.22108 z m 2.157839,0.901237 c 0,-0.05676 -0.242294,-0.103208 -0.53843,-0.103208 -0.296136,0 -0.538429,0.109804 -0.538429,0.24401 0,0.134206 0.242293,0.180651 0.538429,0.103209 0.296136,-0.07744 0.53843,-0.187247 0.53843,-0.244011 z m 0.673036,0.166006 c 0.09151,-0.148068 0.03809,-0.269214 -0.118718,-0.269214 -0.156807,0 -0.285104,0.121146 -0.285104,0.269214 0,0.148068 0.05342,0.269215 0.118718,0.269215 0.0653,0 0.193593,-0.121147 0.285104,-0.269215 z m 2.019109,0 c 0,-0.148068 -0.128296,-0.269214 -0.285103,-0.269214 -0.156807,0 -0.21023,0.121146 -0.118718,0.269214 0.09151,0.148068 0.219808,0.269215 0.285103,0.269215 0.0653,0 0.118718,-0.121147 0.118718,-0.269215 z m 2.153717,-0.166006 c 0,-0.05676 -0.454299,-0.09469 -1.009555,-0.08429 -0.768987,0.0144 -0.882278,0.06863 -0.475424,0.227532 0.492477,0.192346 1.484979,0.0966 1.484979,-0.143247 z M 81.839331,94.60327 c 0,-0.444204 -0.09912,-0.807643 -0.220266,-0.807643 -0.121147,0 -0.220266,0.363439 -0.220266,0.807643 0,0.444204 0.09912,0.807644 0.220266,0.807644 0.121146,0 0.220266,-0.36344 0.220266,-0.807644 z m 1.346073,0 c 0,-0.444204 -0.04683,-0.807643 -0.104052,-0.807643 -0.05723,0 -0.157394,0.363439 -0.222589,0.807643 -0.0652,0.444204 -0.01836,0.807644 0.104051,0.807644 0.122426,0 0.22259,-0.36344 0.22259,-0.807644 z m 1.262436,-0.471125 c -0.06772,-0.259119 -0.12312,-0.04711 -0.12312,0.471125 0,0.518238 0.0554,0.730245 0.12312,0.471126 0.06771,-0.259119 0.06771,-0.683132 0,-0.942251 z m 3.044997,0.471125 c 0,-0.444204 -0.09912,-0.807643 -0.220266,-0.807643 -0.121147,0 -0.220266,0.363439 -0.220266,0.807643 0,0.444204 0.09912,0.807644 0.220266,0.807644 0.121147,0 0.220266,-0.36344 0.220266,-0.807644 z m 2.608509,-0.471125 c -0.06772,-0.259119 -0.12312,-0.04711 -0.12312,0.471125 0,0.518238 0.0554,0.730245 0.12312,0.471126 0.06771,-0.259119 0.06771,-0.683132 0,-0.942251 z m 1.601027,0.471125 c 0,-0.444204 -0.09912,-0.807643 -0.220266,-0.807643 -0.121146,0 -0.220266,0.363439 -0.220266,0.807643 0,0.444204 0.09912,0.807644 0.220266,0.807644 0.121147,0 0.220266,-0.36344 0.220266,-0.807644 z m 0.55269,-0.471125 c -0.06772,-0.259119 -0.12312,-0.04711 -0.12312,0.471125 0,0.518238 0.0554,0.730245 0.12312,0.471126 0.06771,-0.259119 0.06771,-0.683132 0,-0.942251 z m 1.429709,0.471125 c 0,-0.444204 -0.09912,-0.807643 -0.220265,-0.807643 -0.121147,0 -0.220266,0.363439 -0.220266,0.807643 0,0.444204 0.09912,0.807644 0.220266,0.807644 0.121146,0 0.220265,-0.36344 0.220265,-0.807644 z m 1.346073,-0.269214 c 0,-0.946519 -0.07331,-1.073079 -0.605732,-1.045629 -0.455826,0.0235 -0.489139,0.0617 -0.134608,0.154347 0.30985,0.08097 0.471126,0.386076 0.471126,0.891282 0,0.505206 -0.161276,0.810309 -0.471126,0.89128 -0.354531,0.09265 -0.321218,0.130849 0.134608,0.154349 0.532417,0.02745 0.605732,-0.09911 0.605732,-1.045629 z M 81.031687,94.60327 c 0,-0.148068 -0.121147,-0.269214 -0.269215,-0.269214 -0.148068,0 -0.269214,0.121146 -0.269214,0.269214 0,0.148068 0.121146,0.269215 0.269214,0.269215 0.148068,0 0.269215,-0.121147 0.269215,-0.269215 z m 2.96136,0 c 0,-0.148068 -0.121146,-0.269214 -0.269214,-0.269214 -0.148068,0 -0.269215,0.121146 -0.269215,0.269214 0,0.148068 0.121147,0.269215 0.269215,0.269215 0.148068,0 0.269214,-0.121147 0.269214,-0.269215 z m 1.346073,0 c 0,-0.148068 -0.128297,-0.269214 -0.285103,-0.269214 -0.156807,0 -0.21023,0.121146 -0.118719,0.269214 0.09151,0.148068 0.219809,0.269215 0.285104,0.269215 0.06529,0 0.118718,-0.121147 0.118718,-0.269215 z m 4.307434,0 c 0,-0.148068 -0.121147,-0.269214 -0.269215,-0.269214 -0.148068,0 -0.269215,0.121146 -0.269215,0.269214 0,0.148068 0.121147,0.269215 0.269215,0.269215 0.148068,0 0.269215,-0.121147 0.269215,-0.269215 z m 6.191935,0 c 0,-0.148068 -0.05342,-0.269214 -0.118718,-0.269214 -0.06529,0 -0.193592,0.121146 -0.285104,0.269214 -0.09151,0.148068 -0.03809,0.269215 0.118719,0.269215 0.156806,0 0.285103,-0.121147 0.285103,-0.269215 z M 82.983493,93.348116 c -0.185085,-0.07468 -0.487952,-0.07468 -0.673037,0 -0.185085,0.07468 -0.03365,0.135788 0.336518,0.135788 0.37017,0 0.521604,-0.0611 0.336519,-0.135788 z m 5.653506,0 c -0.185085,-0.07468 -0.487951,-0.07468 -0.673037,0 -0.185085,0.07468 -0.03365,0.135788 0.336519,0.135788 0.37017,0 0.521603,-0.0611 0.336518,-0.135788 z m 2.153717,0 c -0.185085,-0.07468 -0.487952,-0.07468 -0.673037,0 -0.185085,0.07468 -0.03365,0.135788 0.336518,0.135788 0.37017,0 0.521604,-0.0611 0.336519,-0.135788 z m -9.759029,-1.48186 c 0,-0.320814 -0.08427,-0.499028 -0.187269,-0.39603 -0.290969,0.29097 -0.331825,0.979328 -0.05813,0.979328 0.134968,0 0.245395,-0.262484 0.245395,-0.583298 z m 0.807644,-0.08974 c 0,-0.37017 -0.09692,-0.673036 -0.215372,-0.673036 -0.118454,0 -0.215372,0.302866 -0.215372,0.673036 0,0.370171 0.09692,0.673037 0.215372,0.673037 0.118454,0 0.215372,-0.302866 0.215372,-0.673037 z m 1.309411,-0.0673 c -0.03143,-0.634766 -0.0533,-0.653962 -0.153331,-0.134607 -0.06417,0.333153 -0.220966,0.605732 -0.348437,0.605732 -0.12747,0 -0.284266,-0.272579 -0.348436,-0.605732 -0.100032,-0.519355 -0.121898,-0.500159 -0.153331,0.134607 -0.02838,0.573084 0.08498,0.74034 0.501767,0.74034 0.41679,0 0.530146,-0.167256 0.501768,-0.74034 z m 1.870414,0.557952 c -0.250011,-0.06596 -0.506094,-0.385061 -0.569068,-0.709111 -0.09426,-0.485032 -0.120983,-0.458311 -0.151164,0.151159 -0.03008,0.60743 0.07208,0.734733 0.569071,0.709111 0.429174,-0.02213 0.473233,-0.06619 0.151161,-0.151159 z m 0.924284,-0.490649 c -0.07076,-0.37017 -0.175108,-0.673036 -0.231883,-0.673036 -0.05677,0 -0.103222,0.302866 -0.103222,0.673036 0,0.370171 0.104347,0.673037 0.231882,0.673037 0.127535,0 0.173986,-0.302866 0.103223,-0.673037 z m 0.659102,-0.331394 c -0.06826,-0.261937 -0.128593,-0.11281 -0.13408,0.331394 -0.0055,0.444205 0.05036,0.658517 0.124105,0.47625 0.07374,-0.182267 0.07823,-0.545707 0.01,-0.807644 z m 0.890295,0.286525 c 0,-0.809637 -0.229252,-0.726991 -0.396806,0.14305 -0.06089,0.316171 0.0035,0.574856 0.14305,0.574856 0.139566,0 0.253756,-0.323058 0.253756,-0.717906 z m 1.309411,-0.02243 c -0.03018,-0.60947 -0.0569,-0.636191 -0.151164,-0.151159 -0.06297,0.32405 -0.319057,0.643149 -0.569068,0.709111 -0.322072,0.08497 -0.278013,0.129032 0.151161,0.151159 0.496989,0.02562 0.599151,-0.101681 0.569071,-0.709111 z m 1.300083,-0.264091 c -0.06826,-0.261937 -0.128593,-0.11281 -0.134079,0.331394 -0.0055,0.444205 0.05036,0.658517 0.124105,0.47625 0.07374,-0.182267 0.07823,-0.545707 0.01,-0.807644 z m 3.582441,0.331394 c 0,-0.37017 -0.04645,-0.673036 -0.103222,-0.673036 -0.05677,0 -0.161119,0.302866 -0.231882,0.673036 -0.07076,0.370171 -0.02431,0.673037 0.103222,0.673037 0.127535,0 0.231882,-0.302866 0.231882,-0.673037 z m 1.309412,-0.0673 c -0.03018,-0.60947 -0.0569,-0.636191 -0.151164,-0.151159 -0.06297,0.32405 -0.319057,0.643149 -0.569069,0.709111 -0.322072,0.08497 -0.278012,0.129032 0.151162,0.151159 0.496989,0.02562 0.59915,-0.101681 0.569071,-0.709111 z m 0.844305,0.336518 c 0,-0.222102 -0.04761,-0.403822 -0.105804,-0.403822 -0.05819,0 -0.175536,0.18172 -0.260766,0.403822 -0.08523,0.222102 -0.03762,0.403822 0.105804,0.403822 0.143421,0 0.260766,-0.18172 0.260766,-0.403822 z m -4.392745,-0.723514 c -0.08594,-0.214761 -0.149731,-0.150969 -0.162648,0.16265 -0.01168,0.283797 0.05194,0.442802 0.141397,0.353345 0.08946,-0.08946 0.09902,-0.321656 0.02124,-0.515995 z m 0.807644,0 c -0.08594,-0.214761 -0.149732,-0.150969 -0.162649,0.16265 -0.01168,0.283797 0.05194,0.442802 0.141397,0.353345 0.08946,-0.08946 0.09902,-0.321656 0.02124,-0.515995 z M 75.863066,108.65383 c 0.861632,-0.55714 1.399617,-1.71157 1.399617,-3.00335 0,-0.87049 -0.188397,-1.29976 -0.921565,-2.09978 -0.856019,-0.93408 -1.029819,-1.0056 -2.443618,-1.0056 -1.413799,0 -1.587599,0.0715 -2.443618,1.0056 -2.746441,2.99689 0.985907,7.31665 4.409184,5.10313 z m -3.042529,-0.1553 c -1.067285,-0.46514 -1.473888,-0.99236 -1.662712,-2.15596 -0.391097,-2.41004 1.851768,-4.09332 4.09327,-3.07202 1.364657,0.62178 1.932517,2.94096 1.034153,4.22356 -0.390935,0.55813 -1.88846,1.39492 -2.446404,1.367 -0.115808,-0.006 -0.574044,-0.16896 -1.018307,-0.36258 z m 82.160503,0.32619 c 1.21701,-1.14332 0.51616,-2.91444 -1.15327,-2.91444 -1.61534,0 -2.23803,1.6636 -1.06263,2.83899 0.81496,0.81496 1.40726,0.83513 2.2159,0.0755 z M 19.427651,101.69573 c 1.070116,-0.96844 0.261385,-2.785027 -1.239872,-2.785027 -0.491712,0 -1.050193,0.188176 -1.241069,0.418166 -0.446494,0.537993 -0.446494,1.856251 0,2.394241 0.45644,0.54998 1.860086,0.53449 2.480941,-0.0274 z m 8.434155,-12.745965 c 0.09151,-0.148068 -0.02249,-0.269215 -0.253327,-0.269215 -0.23084,0 -0.41971,0.121147 -0.41971,0.269215 0,0.148068 0.113997,0.269214 0.253326,0.269214 0.13933,0 0.328199,-0.121146 0.419711,-0.269214 z m 15.749053,0.16341 c 0,-0.05819 -0.18172,-0.175537 -0.403822,-0.260765 -0.222102,-0.08523 -0.403822,-0.03762 -0.403822,0.105804 0,0.143421 0.18172,0.260765 0.403822,0.260765 0.222102,0 0.403822,-0.04761 0.403822,-0.105804 z m -14.07207,-0.326061 c -0.08946,-0.08946 -0.321658,-0.09902 -0.515996,-0.02125 -0.21476,0.08594 -0.15097,0.149732 0.162652,0.16265 0.283795,0.01169 0.442801,-0.05194 0.353344,-0.141397 z m 1.688199,-0.106564 c 0,-0.148068 -0.121147,-0.269215 -0.269215,-0.269215 -0.148068,0 -0.269214,0.121147 -0.269214,0.269215 0,0.148068 0.121146,0.269215 0.269214,0.269215 0.148068,0 0.269215,-0.121147 0.269215,-0.269215 z m 8.749474,0 c -0.09151,-0.148068 -0.280382,-0.269215 -0.419711,-0.269215 -0.139329,0 -0.253325,0.121147 -0.253325,0.269215 0,0.148068 0.18887,0.269215 0.419711,0.269215 0.23084,0 0.344836,-0.121147 0.253325,-0.269215 z m 1.676984,0.106564 c -0.08946,-0.08946 -0.321658,-0.09902 -0.515996,-0.02125 -0.214761,0.08594 -0.15097,0.149732 0.162651,0.16265 0.283796,0.01169 0.442802,-0.05194 0.353345,-0.141397 z m -8.614867,-0.269215 c -0.08946,-0.08946 -0.321658,-0.09902 -0.515996,-0.02125 -0.21476,0.08594 -0.15097,0.149733 0.162652,0.162651 0.283795,0.01169 0.442801,-0.05194 0.353344,-0.141397 z m 1.884502,0 c -0.08946,-0.08946 -0.321658,-0.09902 -0.515996,-0.02125 -0.21476,0.08594 -0.15097,0.149733 0.162652,0.162651 0.283795,0.01169 0.442801,-0.05194 0.353344,-0.141397 z m 1.615287,0 c -0.08946,-0.08946 -0.321657,-0.09902 -0.515995,-0.02125 -0.214761,0.08594 -0.15097,0.149733 0.162651,0.162651 0.283795,0.01169 0.442802,-0.05194 0.353344,-0.141397 z m 1.615288,0 c -0.08946,-0.08946 -0.321658,-0.09902 -0.515996,-0.02125 -0.21476,0.08594 -0.15097,0.149733 0.162652,0.162651 0.283795,0.01169 0.442801,-0.05194 0.353344,-0.141397 z m -10.49937,-0.269214 c -0.08946,-0.08946 -0.321655,-0.09902 -0.515995,-0.02125 -0.214761,0.08594 -0.150969,0.149733 0.162651,0.162651 0.283797,0.01169 0.442802,-0.05194 0.353344,-0.141397 z m 1.884503,0 c -0.08946,-0.08946 -0.321658,-0.09902 -0.515996,-0.02125 -0.21476,0.08594 -0.15097,0.149733 0.162652,0.162651 0.283795,0.01169 0.442801,-0.05194 0.353344,-0.141397 z m 12.114657,0 c -0.08946,-0.08946 -0.321658,-0.09902 -0.515996,-0.02125 -0.214761,0.08594 -0.15097,0.149733 0.162651,0.162651 0.283796,0.01169 0.442802,-0.05194 0.353345,-0.141397 z M 26.111911,87.738299 c 0,-0.222102 -0.121147,-0.403822 -0.269215,-0.403822 -0.148068,0 -0.269214,0.18172 -0.269214,0.403822 0,0.222102 0.121146,0.403822 0.269214,0.403822 0.148068,0 0.269215,-0.18172 0.269215,-0.403822 z m 5.042166,0.241171 c -0.08946,-0.08946 -0.321658,-0.09902 -0.515996,-0.02125 -0.214761,0.08594 -0.15097,0.149732 0.162651,0.16265 0.283796,0.01169 0.442802,-0.05194 0.353345,-0.141396 z m 1.884502,0 c -0.08946,-0.08946 -0.321658,-0.09902 -0.515996,-0.02125 -0.21476,0.08594 -0.15097,0.149732 0.162652,0.16265 0.283795,0.01169 0.442801,-0.05194 0.353344,-0.141396 z m 1.615287,0 c -0.08946,-0.08946 -0.321657,-0.09902 -0.515995,-0.02125 -0.214761,0.08594 -0.15097,0.149732 0.162651,0.16265 0.283795,0.01169 0.442802,-0.05194 0.353344,-0.141396 z m 1.884502,0 c -0.08946,-0.08946 -0.321657,-0.09902 -0.515995,-0.02125 -0.214761,0.08594 -0.15097,0.149732 0.162651,0.16265 0.283795,0.01169 0.442802,-0.05194 0.353344,-0.141396 z m 1.615288,0 c -0.08946,-0.08946 -0.321658,-0.09902 -0.515996,-0.02125 -0.21476,0.08594 -0.15097,0.149732 0.162652,0.16265 0.283795,0.01169 0.442801,-0.05194 0.353344,-0.141396 z m 1.884502,0 c -0.08946,-0.08946 -0.321658,-0.09902 -0.515996,-0.02125 -0.21476,0.08594 -0.15097,0.149732 0.162652,0.16265 0.283795,0.01169 0.442801,-0.05194 0.353344,-0.141396 z m 12.9223,0 c -0.08946,-0.08946 -0.321657,-0.09902 -0.515995,-0.02125 -0.214761,0.08594 -0.15097,0.149732 0.162651,0.16265 0.283795,0.01169 0.442802,-0.05194 0.353344,-0.141396 z M 27.654286,87.710256 c -0.08946,-0.08946 -0.321655,-0.09902 -0.515995,-0.02125 -0.214761,0.08594 -0.150969,0.149733 0.162651,0.162651 0.283797,0.01169 0.442802,-0.05194 0.353344,-0.141397 z m 1.867677,-0.521971 c 0,-0.21573 -0.161529,-0.392237 -0.358954,-0.392237 -0.197424,0 -0.358952,0.238491 -0.358952,0.52998 0,0.331045 0.134736,0.478276 0.358952,0.392237 0.197425,-0.07576 0.358954,-0.31425 0.358954,-0.52998 z m 12.156829,0.235805 c -0.04787,-0.246849 -0.228762,-0.496 -0.401975,-0.553669 -0.254144,-0.08461 -0.300476,0.311127 -0.109487,0.935182 0.01133,0.03702 0.150628,0.0673 0.309551,0.0673 0.158926,0 0.249785,-0.201967 0.201911,-0.448816 z m 1.730156,0.270521 c -0.185085,-0.07468 -0.487951,-0.07468 -0.673036,0 -0.185085,0.07468 -0.03365,0.135788 0.336518,0.135788 0.37017,0 0.521603,-0.0611 0.336518,-0.135788 z m 11.166798,0.01564 c -0.08946,-0.08946 -0.321658,-0.09902 -0.515996,-0.02126 -0.21476,0.08594 -0.15097,0.149733 0.162652,0.162651 0.283795,0.01169 0.442801,-0.05194 0.353344,-0.141397 z m 1.688199,-0.106563 c 0,-0.148068 -0.121147,-0.269215 -0.269215,-0.269215 -0.148068,0 -0.269215,0.121147 -0.269215,0.269215 0,0.148068 0.121147,0.269214 0.269215,0.269214 0.148068,0 0.269215,-0.121146 0.269215,-0.269214 z m 12.249263,0 c -0.09151,-0.148068 -0.280381,-0.269215 -0.41971,-0.269215 -0.13933,0 -0.253326,0.121147 -0.253326,0.269215 0,0.148068 0.18887,0.269214 0.419711,0.269214 0.230841,0 0.344837,-0.121146 0.253325,-0.269214 z m 1.676984,0.106564 c -0.08946,-0.08946 -0.321658,-0.09902 -0.515996,-0.02125 -0.21476,0.08594 -0.15097,0.149733 0.162652,0.162651 0.283795,0.01169 0.442801,-0.05194 0.353344,-0.141397 z M 31.154077,87.441041 c -0.08946,-0.08946 -0.321658,-0.09902 -0.515996,-0.02125 -0.214761,0.08594 -0.15097,0.149732 0.162651,0.16265 0.283796,0.01169 0.442802,-0.05194 0.353345,-0.141397 z m 1.884502,0 c -0.08946,-0.08946 -0.321658,-0.09902 -0.515996,-0.02125 -0.21476,0.08594 -0.15097,0.149732 0.162652,0.16265 0.283795,0.01169 0.442801,-0.05194 0.353344,-0.141397 z m 1.688199,-0.241171 c 0,-0.222102 -0.161529,-0.403822 -0.358952,-0.403822 -0.197426,0 -0.358955,0.18172 -0.358955,0.403822 0,0.222102 0.161529,0.403822 0.358955,0.403822 0.197423,0 0.358952,-0.18172 0.358952,-0.403822 z m 1.794764,0 c 0,-0.222102 -0.141337,-0.403822 -0.314084,-0.403822 -0.172747,0 -0.314085,0.18172 -0.314085,0.403822 0,0.222102 0.141338,0.403822 0.314085,0.403822 0.172747,0 0.314084,-0.18172 0.314084,-0.403822 z m 1.632114,0.241171 c -0.08946,-0.08946 -0.321658,-0.09902 -0.515996,-0.02125 -0.21476,0.08594 -0.15097,0.149732 0.162652,0.16265 0.283795,0.01169 0.442801,-0.05194 0.353344,-0.141397 z m 1.884502,0 c -0.08946,-0.08946 -0.321658,-0.09902 -0.515996,-0.02125 -0.21476,0.08594 -0.15097,0.149732 0.162652,0.16265 0.283795,0.01169 0.442801,-0.05194 0.353344,-0.141397 z m 18.037377,0 c -0.08946,-0.08946 -0.321657,-0.09902 -0.515995,-0.02125 -0.214761,0.08594 -0.15097,0.149732 0.162651,0.16265 0.283796,0.01169 0.442802,-0.05194 0.353344,-0.141397 z m 1.615288,0 c -0.08946,-0.08946 -0.321658,-0.09902 -0.515996,-0.02125 -0.21476,0.08594 -0.15097,0.149732 0.162652,0.16265 0.283795,0.01169 0.442801,-0.05194 0.353344,-0.141397 z m 1.957413,0.04393 c 0,-0.284149 -0.516652,-0.403529 -0.670322,-0.154887 -0.093,0.150483 0.01977,0.273606 0.250612,0.273606 0.23084,0 0.41971,-0.05342 0.41971,-0.118719 z m 3.426879,-0.04393 c -0.08946,-0.08946 -0.321658,-0.09902 -0.515996,-0.02125 -0.21476,0.08594 -0.15097,0.149732 0.162652,0.16265 0.283795,0.01169 0.442801,-0.05194 0.353344,-0.141397 z m 1.615287,0 c -0.08946,-0.08946 -0.321657,-0.09902 -0.515995,-0.02125 -0.214761,0.08594 -0.15097,0.149732 0.162651,0.16265 0.283795,0.01169 0.442802,-0.05194 0.353344,-0.141397 z M 27.654286,87.171827 c -0.08946,-0.08946 -0.321655,-0.09902 -0.515995,-0.02125 -0.214761,0.08594 -0.150969,0.149733 0.162651,0.162651 0.283797,0.01169 0.442802,-0.05194 0.353344,-0.141397 z m 15.883662,0 c -0.08946,-0.08946 -0.321658,-0.09902 -0.515996,-0.02125 -0.21476,0.08594 -0.15097,0.149733 0.162651,0.162651 0.283796,0.01169 0.442802,-0.05194 0.353345,-0.141397 z m 11.037798,0 c -0.08946,-0.08946 -0.321658,-0.09902 -0.515996,-0.02125 -0.21476,0.08594 -0.15097,0.149733 0.162652,0.162651 0.283795,0.01169 0.442801,-0.05194 0.353344,-0.141397 z m 15.614446,0 c -0.08946,-0.08946 -0.321658,-0.09902 -0.515996,-0.02125 -0.21476,0.08594 -0.15097,0.149733 0.162652,0.162651 0.283795,0.01169 0.442801,-0.05194 0.353344,-0.141397 z M 25.977303,86.796048 c 0.09151,-0.148068 0.03809,-0.269214 -0.118719,-0.269214 -0.156806,0 -0.285102,0.121146 -0.285102,0.269214 0,0.148068 0.05342,0.269215 0.118719,0.269215 0.06529,0 0.193591,-0.121147 0.285102,-0.269215 z m 5.176774,0.106564 c -0.08946,-0.08946 -0.321658,-0.09902 -0.515996,-0.02125 -0.214761,0.08594 -0.15097,0.149732 0.162651,0.16265 0.283796,0.01169 0.442802,-0.05194 0.353345,-0.141397 z m 1.884502,0 c -0.08946,-0.08946 -0.321658,-0.09902 -0.515996,-0.02125 -0.21476,0.08594 -0.15097,0.149732 0.162652,0.16265 0.283795,0.01169 0.442801,-0.05194 0.353344,-0.141397 z m 5.115077,0 c -0.08946,-0.08946 -0.321658,-0.09902 -0.515996,-0.02125 -0.21476,0.08594 -0.15097,0.149732 0.162652,0.16265 0.283795,0.01169 0.442801,-0.05194 0.353344,-0.141397 z m 1.884502,0 c -0.08946,-0.08946 -0.321658,-0.09902 -0.515996,-0.02125 -0.21476,0.08594 -0.15097,0.149732 0.162652,0.16265 0.283795,0.01169 0.442801,-0.05194 0.353344,-0.141397 z m 4.918774,0.04393 c 0,-0.0653 -0.121147,-0.193592 -0.269215,-0.285103 -0.148068,-0.09151 -0.269214,-0.03809 -0.269214,0.118719 0,0.156806 0.121146,0.285103 0.269214,0.285103 0.148068,0 0.269215,-0.05342 0.269215,-0.118719 z m 11.234101,-0.04393 c -0.08946,-0.08946 -0.321657,-0.09902 -0.515995,-0.02125 -0.214761,0.08594 -0.15097,0.149732 0.162651,0.16265 0.283795,0.01169 0.442802,-0.05194 0.353344,-0.141397 z m 1.884502,0 c -0.08946,-0.08946 -0.321657,-0.09902 -0.515995,-0.02125 -0.214761,0.08594 -0.15097,0.149732 0.162651,0.16265 0.283796,0.01169 0.442802,-0.05194 0.353344,-0.141397 z m 1.688199,-0.106564 c 0,-0.148068 -0.18172,-0.269214 -0.403822,-0.269214 -0.222102,0 -0.403821,0.121146 -0.403821,0.269214 0,0.148068 0.181719,0.269215 0.403821,0.269215 0.222102,0 0.403822,-0.121147 0.403822,-0.269215 z m 5.115078,0 c 0,-0.148068 -0.121147,-0.269214 -0.269215,-0.269214 -0.148068,0 -0.269215,0.121146 -0.269215,0.269214 0,0.148068 0.121147,0.269215 0.269215,0.269215 0.148068,0 0.269215,-0.121147 0.269215,-0.269215 z m 1.81159,0.106564 c -0.08946,-0.08946 -0.321657,-0.09902 -0.515995,-0.02125 -0.214761,0.08594 -0.15097,0.149732 0.162651,0.16265 0.283795,0.01169 0.442802,-0.05194 0.353344,-0.141397 z m 1.615288,0 c -0.08946,-0.08946 -0.321658,-0.09902 -0.515996,-0.02125 -0.21476,0.08594 -0.15097,0.149732 0.162652,0.16265 0.283795,0.01169 0.442801,-0.05194 0.353344,-0.141397 z M 27.654286,86.633398 c -0.08946,-0.08946 -0.321655,-0.09902 -0.515995,-0.02125 -0.214761,0.08594 -0.150969,0.149733 0.162651,0.162651 0.283797,0.01169 0.442802,-0.05194 0.353344,-0.141397 z m 15.883662,0 c -0.08946,-0.08946 -0.321658,-0.09902 -0.515996,-0.02125 -0.21476,0.08594 -0.15097,0.149733 0.162651,0.162651 0.283796,0.01169 0.442802,-0.05194 0.353345,-0.141397 z m 10.996061,-0.457677 c 0.03685,-0.251092 -0.07371,-0.458386 -0.24569,-0.460654 -0.176847,-0.0023 -0.137259,-0.1175 0.09112,-0.265092 0.353026,-0.228143 0.349712,-0.261488 -0.02633,-0.265092 -0.29627,-0.0028 -0.437449,0.252422 -0.453591,0.820111 -0.02439,0.857885 0.512439,1.002334 0.634493,0.170727 z m 7.041316,0.457677 c -0.08946,-0.08946 -0.321658,-0.09902 -0.515995,-0.02125 -0.214761,0.08594 -0.150971,0.149733 0.162651,0.162651 0.283795,0.01169 0.442801,-0.05194 0.353344,-0.141397 z m 1.615288,0 c -0.08946,-0.08946 -0.321658,-0.09902 -0.515996,-0.02125 -0.21476,0.08594 -0.15097,0.149733 0.162651,0.162651 0.283796,0.01169 0.442802,-0.05194 0.353345,-0.141397 z M 70.1958,86.45953 c -0.03702,-0.185085 -0.188451,-0.425523 -0.336519,-0.534307 -0.166727,-0.122492 -0.141103,-0.199358 0.0673,-0.201911 0.185085,-0.0023 0.336518,-0.125269 0.336518,-0.273337 0,-0.148068 -0.18172,-0.269214 -0.403822,-0.269214 -0.269214,0 -0.403821,0.269214 -0.403821,0.807643 0,0.53843 0.134607,0.807644 0.403821,0.807644 0.222102,0 0.373536,-0.151433 0.336519,-0.336518 z m 1.413376,-0.0673 c 0,-0.222102 -0.100955,-0.403822 -0.224344,-0.403822 -0.123392,0 -0.224348,0.18172 -0.224348,0.403822 0,0.222102 0.100956,0.403822 0.224348,0.403822 0.123389,0 0.224344,-0.18172 0.224344,-0.403822 z M 29.538789,86.36419 c -0.08946,-0.08946 -0.321658,-0.09902 -0.515996,-0.02125 -0.21476,0.08594 -0.15097,0.149732 0.162652,0.16265 0.283795,0.01169 0.442801,-0.05194 0.353344,-0.141397 z m 1.615288,0 c -0.08946,-0.08946 -0.321658,-0.09902 -0.515996,-0.02125 -0.214761,0.08594 -0.15097,0.149732 0.162651,0.16265 0.283796,0.01169 0.442802,-0.05194 0.353345,-0.141397 z m 1.822806,-0.106564 c 0.09151,-0.148068 -0.02248,-0.269215 -0.253326,-0.269215 -0.230841,0 -0.419711,0.121147 -0.419711,0.269215 0,0.148068 0.113997,0.269215 0.253326,0.269215 0.139329,0 0.328199,-0.121147 0.419711,-0.269215 z m 5.176773,0.106564 c -0.08946,-0.08946 -0.321658,-0.09902 -0.515996,-0.02125 -0.21476,0.08594 -0.15097,0.149732 0.162652,0.16265 0.283795,0.01169 0.442801,-0.05194 0.353344,-0.141397 z m 1.884502,0 c -0.08946,-0.08946 -0.321658,-0.09902 -0.515996,-0.02125 -0.21476,0.08594 -0.15097,0.149732 0.162652,0.16265 0.283795,0.01169 0.442801,-0.05194 0.353344,-0.141397 z m 1.615288,0 c -0.08946,-0.08946 -0.321658,-0.09902 -0.515996,-0.02125 -0.214761,0.08594 -0.15097,0.149732 0.162651,0.16265 0.283796,0.01169 0.442802,-0.05194 0.353345,-0.141397 z m 14.537587,0 c -0.08946,-0.08946 -0.321657,-0.09902 -0.515995,-0.02125 -0.214761,0.08594 -0.15097,0.149732 0.162651,0.16265 0.283795,0.01169 0.442802,-0.05194 0.353344,-0.141397 z m 1.759388,0.0017 c 0.215673,-0.215672 -0.0666,-0.915931 -0.369207,-0.915931 -0.132224,0 -0.240411,0.242293 -0.240411,0.538429 0,0.52475 0.285548,0.701573 0.609618,0.377502 z m 8.812893,-0.242894 c 0,-0.222102 -0.151434,-0.413386 -0.336519,-0.425076 -0.269214,-0.017 -0.269214,-0.04841 0,-0.157042 0.468749,-0.189144 0.421674,-0.629348 -0.0673,-0.629348 -0.269215,0 -0.403822,0.269215 -0.403822,0.807644 0,0.538429 0.134607,0.807644 0.403822,0.807644 0.222102,0 0.403822,-0.18172 0.403822,-0.403822 z m 1.682591,0.225526 c -0.185085,-0.07468 -0.487952,-0.07468 -0.673037,0 -0.185085,0.07468 -0.03365,0.135788 0.336519,0.135788 0.37017,0 0.521603,-0.0611 0.336518,-0.135788 z M 27.727198,85.988404 c 0,-0.148068 -0.113996,-0.269214 -0.253326,-0.269214 -0.13933,0 -0.328199,0.121146 -0.41971,0.269214 -0.09151,0.148068 0.02248,0.269215 0.253326,0.269215 0.230841,0 0.41971,-0.121147 0.41971,-0.269215 z m 6.926668,0.106564 c -0.08946,-0.08946 -0.321657,-0.09902 -0.515995,-0.02125 -0.214761,0.08594 -0.15097,0.149733 0.162651,0.16265 0.283795,0.01169 0.442802,-0.05194 0.353344,-0.141396 z m 1.884502,0 c -0.08946,-0.08946 -0.321657,-0.09902 -0.515995,-0.02125 -0.214761,0.08594 -0.15097,0.149733 0.162651,0.16265 0.283795,0.01169 0.442802,-0.05194 0.353344,-0.141396 z m 6.730365,0 c -0.08946,-0.08946 -0.321658,-0.09902 -0.515995,-0.02125 -0.214761,0.08594 -0.150971,0.149733 0.162651,0.16265 0.283795,0.01169 0.442801,-0.05194 0.353344,-0.141396 z m 16.42209,0 c -0.08946,-0.08946 -0.321658,-0.09902 -0.515996,-0.02125 -0.21476,0.08594 -0.15097,0.149733 0.162652,0.16265 0.283795,0.01169 0.442801,-0.05194 0.353344,-0.141396 z m 1.884502,0 c -0.08946,-0.08946 -0.321658,-0.09902 -0.515995,-0.02125 -0.214761,0.08594 -0.150971,0.149733 0.162651,0.16265 0.283795,0.01169 0.442801,-0.05194 0.353344,-0.141396 z m 1.615288,0 c -0.08946,-0.08946 -0.321658,-0.09902 -0.515996,-0.02125 -0.21476,0.08594 -0.15097,0.149733 0.162651,0.16265 0.283796,0.01169 0.442802,-0.05194 0.353345,-0.141396 z m 1.884502,0 c -0.08946,-0.08946 -0.321658,-0.09902 -0.515996,-0.02125 -0.21476,0.08594 -0.15097,0.149733 0.162652,0.16265 0.283795,0.01169 0.442801,-0.05194 0.353344,-0.141396 z M 29.538789,85.825754 c -0.08946,-0.08946 -0.321658,-0.09902 -0.515996,-0.02125 -0.21476,0.08594 -0.15097,0.149733 0.162652,0.162651 0.283795,0.01169 0.442801,-0.05194 0.353344,-0.141397 z m 1.688199,-0.106564 c 0,-0.148068 -0.113996,-0.269215 -0.253326,-0.269215 -0.139329,0 -0.328199,0.121147 -0.419711,0.269215 -0.09151,0.148068 0.02248,0.269214 0.253326,0.269214 0.230841,0 0.419711,-0.121146 0.419711,-0.269214 z m 8.614867,0.150495 c 0,-0.0653 -0.121147,-0.193591 -0.269215,-0.285102 -0.148068,-0.09151 -0.269214,-0.03809 -0.269214,0.118719 0,0.156806 0.121146,0.285102 0.269214,0.285102 0.148068,0 0.269215,-0.05342 0.269215,-0.118719 z m 1.811591,-0.04393 c -0.08946,-0.08946 -0.321658,-0.09902 -0.515996,-0.02125 -0.214761,0.08594 -0.15097,0.149733 0.162651,0.162651 0.283796,0.01169 0.442802,-0.05194 0.353345,-0.141397 z m 14.537587,0 c -0.08946,-0.08946 -0.321657,-0.09902 -0.515995,-0.02125 -0.214761,0.08594 -0.15097,0.149733 0.162651,0.162651 0.283795,0.01169 0.442802,-0.05194 0.353344,-0.141397 z m 12.254872,-0.01565 c -0.185085,-0.07468 -0.487952,-0.07468 -0.673037,0 -0.185085,0.07468 -0.03365,0.135788 0.336519,0.135788 0.37017,0 0.521603,-0.0611 0.336518,-0.135788 z m -35.407326,-0.25357 c -0.08946,-0.08946 -0.321658,-0.09902 -0.515996,-0.02125 -0.21476,0.08594 -0.15097,0.149732 0.162652,0.16265 0.283795,0.01169 0.442801,-0.05194 0.353344,-0.141396 z m 1.615287,0 c -0.08946,-0.08946 -0.321657,-0.09902 -0.515995,-0.02125 -0.214761,0.08594 -0.15097,0.149732 0.162651,0.16265 0.283795,0.01169 0.442802,-0.05194 0.353344,-0.141396 z m 1.755503,-0.01564 c -0.185085,-0.07468 -0.487952,-0.07468 -0.673037,0 -0.185085,0.07468 -0.03365,0.135788 0.336519,0.135788 0.37017,0 0.521603,-0.0611 0.336518,-0.135788 z m 1.744287,0.01564 c -0.08946,-0.08946 -0.321658,-0.09902 -0.515996,-0.02125 -0.21476,0.08594 -0.15097,0.149732 0.162652,0.16265 0.283795,0.01169 0.442801,-0.05194 0.353344,-0.141396 z m 21.537167,0 c -0.08946,-0.08946 -0.321658,-0.09902 -0.515996,-0.02125 -0.21476,0.08594 -0.15097,0.149732 0.162652,0.16265 0.283795,0.01169 0.442801,-0.05194 0.353344,-0.141396 z m 1.884502,0 c -0.08946,-0.08946 -0.321658,-0.09902 -0.515995,-0.02125 -0.214761,0.08594 -0.150971,0.149732 0.162651,0.16265 0.283795,0.01169 0.442801,-0.05194 0.353344,-0.141396 z m 1.615288,0 c -0.08946,-0.08946 -0.321658,-0.09902 -0.515996,-0.02125 -0.21476,0.08594 -0.15097,0.149732 0.162651,0.16265 0.283796,0.01169 0.442802,-0.05194 0.353345,-0.141396 z m 1.884502,0 c -0.08946,-0.08946 -0.321658,-0.09902 -0.515996,-0.02125 -0.21476,0.08594 -0.15097,0.149732 0.162652,0.16265 0.283795,0.01169 0.442801,-0.05194 0.353344,-0.141396 z m -8.884082,-0.269214 c -0.08946,-0.08946 -0.321657,-0.09902 -0.515995,-0.02125 -0.214761,0.08594 -0.15097,0.149733 0.162651,0.162651 0.283795,0.01169 0.442802,-0.05194 0.353344,-0.141397 z m 12.254872,-0.01564 c -0.185085,-0.07468 -0.487952,-0.07468 -0.673037,0 -0.185085,0.07468 -0.03365,0.135788 0.336519,0.135788 0.37017,0 0.521603,-0.0611 0.336518,-0.135788 z m -10.37037,-0.25357 c -0.08946,-0.08946 -0.321657,-0.09902 -0.515995,-0.02125 -0.214761,0.08594 -0.15097,0.149732 0.162651,0.16265 0.283796,0.01169 0.442802,-0.05194 0.353344,-0.141397 z m 1.615288,0 c -0.08946,-0.08946 -0.321658,-0.09902 -0.515996,-0.02125 -0.21476,0.08594 -0.15097,0.149732 0.162652,0.16265 0.283795,0.01169 0.442801,-0.05194 0.353344,-0.141397 z m 1.884502,0 c -0.08946,-0.08946 -0.321658,-0.09902 -0.515995,-0.02125 -0.214761,0.08594 -0.150971,0.149732 0.162651,0.16265 0.283795,0.01169 0.442801,-0.05194 0.353344,-0.141397 z m 1.615288,0 c -0.08946,-0.08946 -0.321658,-0.09902 -0.515996,-0.02125 -0.21476,0.08594 -0.15097,0.149732 0.162651,0.16265 0.283796,0.01169 0.442802,-0.05194 0.353345,-0.141397 z m 1.884502,0 c -0.08946,-0.08946 -0.321658,-0.09902 -0.515996,-0.02125 -0.21476,0.08594 -0.15097,0.149732 0.162652,0.16265 0.283795,0.01169 0.442801,-0.05194 0.353344,-0.141397 z M 54.306531,84.748896 c -0.08946,-0.08946 -0.321657,-0.09902 -0.515995,-0.02125 -0.214761,0.08594 -0.150971,0.149733 0.162651,0.162651 0.283795,0.01169 0.442801,-0.05194 0.353344,-0.141397 z m 1.957414,-0.106564 c 0,-0.148068 -0.18172,-0.269215 -0.403822,-0.269215 -0.222102,0 -0.403822,0.121147 -0.403822,0.269215 0,0.148068 0.18172,0.269214 0.403822,0.269214 0.222102,0 0.403822,-0.121146 0.403822,-0.269214 z m 11.980049,0 c -0.09151,-0.148068 -0.280382,-0.269215 -0.419711,-0.269215 -0.139329,0 -0.253326,0.121147 -0.253326,0.269215 0,0.148068 0.188871,0.269214 0.419711,0.269214 0.230841,0 0.344837,-0.121146 0.253326,-0.269214 z m 1.946198,0.106564 c -0.08946,-0.08946 -0.321658,-0.09902 -0.515996,-0.02125 -0.21476,0.08594 -0.15097,0.149733 0.162652,0.162651 0.283795,0.01169 0.442801,-0.05194 0.353344,-0.141397 z m -12.243656,-0.28486 c -0.185085,-0.07468 -0.487952,-0.07468 -0.673037,0 -0.185085,0.07468 -0.03365,0.135788 0.336519,0.135788 0.37017,0 0.521603,-0.0611 0.336518,-0.135788 z m 1.744287,0.01564 c -0.08946,-0.08946 -0.321658,-0.09902 -0.515996,-0.02125 -0.21476,0.08594 -0.15097,0.149733 0.162652,0.162651 0.283795,0.01169 0.442801,-0.05194 0.353344,-0.141397 z m 1.615287,0 c -0.08946,-0.08946 -0.321657,-0.09902 -0.515995,-0.02125 -0.214761,0.08594 -0.15097,0.149733 0.162651,0.162651 0.283796,0.01169 0.442802,-0.05194 0.353344,-0.141397 z m 1.884503,0 c -0.08946,-0.08946 -0.321658,-0.09902 -0.515996,-0.02125 -0.21476,0.08594 -0.15097,0.149733 0.162651,0.162651 0.283796,0.01169 0.442802,-0.05194 0.353345,-0.141397 z m 1.615287,0 c -0.08946,-0.08946 -0.321657,-0.09902 -0.515995,-0.02125 -0.214761,0.08594 -0.150971,0.149733 0.162651,0.162651 0.283795,0.01169 0.442801,-0.05194 0.353344,-0.141397 z m 1.884502,0 c -0.08946,-0.08946 -0.321657,-0.09902 -0.515995,-0.02125 -0.214761,0.08594 -0.15097,0.149733 0.162651,0.162651 0.283795,0.01169 0.442802,-0.05194 0.353344,-0.141397 z"
       style="fill:#000000;stroke-width:0.269215" />
    <rect
       clip-path="url(#clipPath1378)"
       y="87.690468"
       x="30.616072"
       height="86.556549"
       width="141.3631"
       id="rect863"
       style="opacity:1;fill:none;stroke-width:1.165;stroke-miterlimit:4;stroke-dasharray:none" />
    <rect
       clip-path="url(#clipPath1374)"
       y="84.288696"
       x="24.190477"
       height="89.958313"
       width="147.7887"
       id="rect1344"
       style="opacity:1;fill:none;stroke-width:1.165;stroke-miterlimit:4;stroke-dasharray:none" />
    <rect
       clip-path="url(#clipPath1370)"
       y="80.508926"
       x="19.465773"
       height="88.824409"
       width="144.5759"
       id="rect1346"
       style="opacity:1;fill:none;stroke-width:1.165;stroke-miterlimit:4;stroke-dasharray:none" />
  </g>
</svg>
