<?xml version="1.0" encoding="UTF-8" standalone="no"?>
<svg
   xmlns:dc="http://purl.org/dc/elements/1.1/"
   xmlns:cc="http://creativecommons.org/ns#"
   xmlns:rdf="http://www.w3.org/1999/02/22-rdf-syntax-ns#"
   xmlns:svg="http://www.w3.org/2000/svg"
   xmlns="http://www.w3.org/2000/svg"
   xmlns:sodipodi="http://sodipodi.sourceforge.net/DTD/sodipodi-0.dtd"
   xmlns:inkscape="http://www.inkscape.org/namespaces/inkscape"
   sodipodi:docname="logo-lid.svg"
   inkscape:version="1.0 (4035a4fb49, 2020-05-01)"
   id="svg5296"
   version="1.1"
   viewBox="0 0 206.72394 99.609468"
   height="99.609467mm"
   width="206.72394mm">
  <defs
     id="defs5290">
    <clipPath
       id="clipPath939"
       clipPathUnits="userSpaceOnUse">
      <path
         id="path941"
         d="m -4.3490227,133.71964 151.2745527,3.20724 73.76639,-11.22532 -3.74178,120.80582 -223.9718578,-5.87993 z"
         style="fill:none;stroke:#000000;stroke-width:0.264583px;stroke-linecap:butt;stroke-linejoin:miter;stroke-opacity:1" />
    </clipPath>
  </defs>
  <sodipodi:namedview
     inkscape:snap-global="false"
     inkscape:document-rotation="0"
     inkscape:window-maximized="1"
     inkscape:window-y="-8"
     inkscape:window-x="1912"
     inkscape:window-height="1017"
     inkscape:window-width="1920"
     showgrid="false"
     inkscape:current-layer="layer1"
     inkscape:document-units="mm"
     inkscape:cy="174.89041"
     inkscape:cx="140.45523"
     inkscape:zoom="0.77417533"
     inkscape:pageshadow="2"
     inkscape:pageopacity="0.0"
     borderopacity="1.0"
     bordercolor="#666666"
     pagecolor="#ffffff"
     id="base" />
  <metadata
     id="metadata5293">
    <rdf:RDF>
      <cc:Work
         rdf:about="">
        <dc:format>image/svg+xml</dc:format>
        <dc:type
           rdf:resource="http://purl.org/dc/dcmitype/StillImage" />
        <dc:title></dc:title>
      </cc:Work>
    </rdf:RDF>
  </metadata>
  <g
     transform="translate(-1.5280903,-124.74045)"
     id="layer1"
     inkscape:groupmode="layer"
     inkscape:label="Layer 1">
    <path
       clip-path="url(#clipPath939)"
       inkscape:connector-curvature="0"
       id="path5287"
       style="fill:#000000;stroke-width:0.153043"
       d="m 9.6960108,223.69949 c -0.04625,-0.35773 -1.499451,-19.27961 -3.229338,-42.0486 -1.729888,-22.769 -3.208936,-42.08687 -3.286777,-42.92861 -0.07784,-0.84173 -0.143985,-1.75333 -0.146988,-2.02577 -0.0046,-0.41711 -0.08817,-0.52989 -0.529208,-0.71417 -0.828402,-0.34613 -1.064545,-0.83929 -0.942797,-1.96895 0.254148,-2.35815 0.918751,-6.56449 1.480629,-9.37107 5.219686,-26.072428 16.5274332,-43.465028 31.9719322,-49.176468 3.09069,-1.14295 5.971869,-1.74897 9.589326,-2.017 1.614566,-0.11962 20.640286,-0.1541 65.78442,-0.11919 l 63.5129,0.0491 2.11352,0.34642 c 4.0702,0.66714 7.12189,1.62377 10.35953,3.24742 3.30812,1.65904 5.7429,3.46065 8.50523,6.29345 7.38399,7.57236 11.95093,19.527108 13.20489,34.565828 0.0737,0.88383 0.1455,3.0907 0.1596,4.90417 0.0253,3.2546 0.0211,3.30147 -0.32492,3.62655 -0.19283,0.18114 -0.62095,0.41914 -0.95139,0.52887 l -0.60082,0.19953 -0.46936,1.78224 c -0.25816,0.98023 -0.5842,1.90997 -0.72453,2.06608 -0.22803,0.25366 -0.37991,3.64453 -1.42805,31.88725 -0.83699,22.55248 -1.22411,31.65236 -1.3518,31.77435 -0.0984,0.094 -13.18742,6.82599 -29.08666,14.95996 l -28.90778,14.78904 H 77.088835 9.7801008 Z m 34.8061282,-4.40235 c 23.579425,-0.62629 54.124166,-3.6561 79.364451,-7.87236 9.06658,-1.51453 11.97987,-2.12037 13.33853,-2.77386 1.30226,-0.62636 3.05876,-2.19515 4.09826,-3.66029 0.85077,-1.19912 1.89745,-3.30953 2.54309,-5.12761 l 0.51631,-1.45391 -0.0366,-27.462 c -0.0202,-15.10411 -0.0913,-27.51663 -0.15806,-27.58339 -0.14052,-0.14053 -41.56043,-1.11687 -41.89732,-0.98758 -0.1929,0.074 -0.22437,1.13396 -0.22437,7.55503 v 7.46895 l -0.57392,0.86842 c -0.31565,0.47764 -1.07443,1.45788 -1.686165,2.17832 l -1.11225,1.3099 -15.26337,-0.039 -15.26335,-0.039 -1.224345,-1.83652 -1.22435,-1.83652 -0.04212,-8.22411 -0.04212,-8.22413 -0.340497,-0.0694 c -0.187267,-0.0382 -2.26884,-0.10914 -4.625703,-0.15766 -13.892232,-0.28603 -52.2378512,-1.15138 -54.1441352,-1.22188 -1.978308,-0.0732 -2.274259,-0.0531 -2.356052,0.16009 -0.225522,0.5877 2.429698,9.18736 4.271527,13.83454 l 1.000827,2.52521 0.177422,4.20868 c 0.8411852,19.95425 2.5928632,38.86725 4.4507922,48.05555 0.981294,4.85294 2.068856,7.79295 3.118993,8.43157 0.253043,0.15389 1.186676,0.45153 2.074744,0.66143 2.986636,0.70591 6.999801,1.11612 12.78603,1.30697 5.12074,0.16889 6.272715,0.16932 12.4738,0.004 z m 34.664276,-7.74544 c -5.18214,-0.78145 -9.440782,-2.79055 -12.895302,-6.08363 -3.322823,-3.16753 -5.416668,-6.66856 -6.509969,-10.88504 -0.538333,-2.07614 -0.719904,-3.56123 -0.719904,-5.88802 0,-6.02708 2.347005,-11.66471 6.657371,-15.99137 6.201324,-6.22474 15.122894,-8.31293 23.566684,-5.51601 0.84282,0.27917 1.91118,0.59248 2.37413,0.69623 1.27352,0.28541 3.2997,1.02807 4.66782,1.71089 4.301905,2.14708 8.122095,6.12388 9.996265,10.40607 2.5701,5.87227 2.49847,12.3547 -0.19873,17.98428 -2.86825,5.98658 -7.916655,10.10244 -14.400585,11.74046 -0.8482,0.21427 -1.95011,0.53267 -2.44869,0.70754 -2.28003,0.79966 -3.99767,1.08369 -6.87519,1.1369 -1.51512,0.028 -2.96138,0.0198 -3.2139,-0.0183 z m 6.28857,-2.89782 c 4.47734,-0.77198 8.85294,-3.32321 11.8307,-6.898 5.288675,-6.34901 6.236645,-15.00668 2.43841,-22.26974 -3.95234,-7.55774 -12.36577,-11.8692 -20.7081,-10.61185 -8.49923,1.28101 -15.153461,7.58094 -16.932817,16.03126 -0.461545,2.1919 -0.462155,5.52897 -0.0013,7.71676 0.913716,4.3387 2.830322,7.80918 5.948985,10.77211 3.418852,3.24812 7.491302,5.05627 12.513052,5.55572 0.95667,0.0951 3.5476,-0.0612 4.91119,-0.29626 z m -4.81737,-4.88627 c -4.1821,-0.94504 -7.45655,-3.15114 -9.71487,-6.54518 -1.598177,-2.40192 -2.363655,-4.75884 -2.497471,-7.68982 -0.348859,-7.64109 4.860711,-14.24216 12.396991,-15.70829 1.21761,-0.23687 4.34719,-0.23687 5.5648,0 5.87753,1.14343 10.41746,5.41992 12.01701,11.31971 0.25439,0.93828 0.32109,1.65204 0.33148,3.54684 0.0155,2.8363 -0.28406,4.28036 -1.3587,6.54894 -1.95958,4.13672 -5.19796,6.89507 -9.67307,8.23923 -1.14701,0.34451 -1.69255,0.41154 -3.71651,0.45662 -1.68385,0.0375 -2.65581,-0.0112 -3.34966,-0.16805 z m 8.06065,-17.60971 c 1.33447,-0.55659 2.22926,-1.90704 2.22576,-3.35919 -0.003,-1.13793 -0.30129,-1.85843 -1.10167,-2.65881 -1.44166,-1.44166 -3.70964,-1.37224 -5.1769,0.15845 -1.3291,1.38657 -1.29443,3.75942 0.0741,5.07056 1.01938,0.97663 2.72019,1.3139 3.9787,0.78899 z m 68.902755,9.95509 c 11.19454,-1.30356 23.8035,-4.76322 31.5441,-8.65511 5.62245,-2.82693 9.49562,-6.23429 10.57394,-9.30239 0.53565,-1.52395 0.90045,-5.31104 1.21133,-12.57413 0.32632,-7.62444 0.1959,-32.92246 -0.17282,-33.51906 -0.0935,-0.15126 -5.7454,1.02293 -25.04385,5.20288 -13.70771,2.96902 -25.00809,5.47698 -25.11193,5.57324 -0.1908,0.17686 -0.41127,4.86551 -1.79266,38.12377 -0.29367,7.07059 -0.56249,13.28397 -0.59738,13.80751 -0.038,0.56994 0.006,1.04489 0.10989,1.18368 0.0953,0.1275 0.55209,0.2988 1.01505,0.38067 1.12746,0.19939 5.70515,0.0769 8.26433,-0.22106 z m -59.467565,-37.93425 0.70206,-0.82176 -0.0398,-7.17475 -0.0398,-7.17474 H 83.604665 68.453389 l -0.03766,7.03998 -0.03766,7.03999 0.607709,0.95652 0.607708,0.95652 h 13.918979 13.91898 z m -16.33981,-0.65766 c -0.0561,-0.0561 -0.10202,-1.42971 -0.10202,-3.05243 v -2.95041 l -0.70966,-0.65886 c -1.44468,-1.34128 -1.86037,-3.33755 -1.03844,-4.98695 0.7214,-1.44765 1.93957,-2.16952 3.66114,-2.16952 2.31969,0 3.88277,1.48741 4.02576,3.83087 0.0814,1.33329 -0.34283,2.34656 -1.36829,3.26854 l -0.74443,0.6693 v 2.89209 c 0,2.04536 -0.0538,2.94587 -0.18366,3.07575 -0.1963,0.19632 -3.35293,0.26909 -3.5404,0.0816 z m 61.071195,-24.27009 c 0.0934,-0.12192 0.0904,-1.52359 -0.008,-3.86434 -0.17,-4.03755 0.0229,-10.37764 0.43309,-14.23301 0.45053,-4.23463 1.46041,-10.64041 2.24387,-14.23301 1.58394,-7.263228 4.0537,-13.061128 6.92,-16.245058 0.79204,-0.87982 0.87003,-1.12196 0.36477,-1.13257 -0.1894,-0.004 -22.74876,-1.60716 -50.13192,-3.56265 -41.458871,-2.96065 -50.035436,-3.53566 -51.269425,-3.4373 -9.97118,0.79478 -21.783307,9.08803 -31.588338,22.17806 C 12.057668,109.09594 6.7481478,121.34738 6.2903658,129.96056 l -0.09557,1.79826 1.821621,0.0109 c 2.1762232,0.0131 132.5986332,1.62319 133.8408432,1.65234 0.53072,0.0125 0.91747,-0.0532 1.00775,-0.1711 z m 8.92054,-0.94606 c 29.67859,-4.35564 48.4661,-7.17805 48.5912,-7.29977 0.23449,-0.22809 0.19657,-10.9796 -0.0466,-13.21847 -0.99256,-9.13852 -3.19094,-15.565838 -7.30822,-21.366828 -1.15481,-1.62706 -4.3869,-4.89286 -5.88342,-5.94478 -2.23054,-1.56787 -4.52553,-2.51184 -7.26026,-2.98627 -1.60779,-0.27892 -7.83055,-0.60251 -8.72599,-0.45376 -1.60747,0.26702 -5.74994,2.37957 -8.57718,4.37411 -1.77696,1.25359 -5.35641,4.81862 -6.85595,6.82831 -4.92011,6.59392 -8.19609,16.017598 -9.29648,26.742248 -0.095,0.92591 -0.2094,4.38699 -0.25423,7.6913 -0.0866,6.38183 -0.0709,6.54256 0.62246,6.3906 0.17976,-0.0394 2.42736,-0.37991 4.99465,-0.75669 z" />
    <path
       sodipodi:nodetypes="ccccc"
       id="path991"
       d="M 205.82375,126.55223 48.654973,126.24068 1.755188,133.42404 146.09603,138.25142 Z"
       style="fill:none;stroke:#000000;stroke-width:3;stroke-linecap:butt;stroke-linejoin:miter;stroke-opacity:1" />
    <path
       sodipodi:nodetypes="ccccccc"
       transform="matrix(0.26458333,0,0,0.26458333,1.5309069,73.31673)"
       id="path1013"
       d="m 179.36465,201.23346 c -35.93716,5.63008 -71.97755,10.67727 -107.821391,16.86018 -7.772248,3.61542 -18.174985,9.91312 -11.711051,7.80316 155.127082,5.71983 327.735482,13.30839 482.875212,18.18215 55.34537,-9.36969 110.27351,-21.04636 165.39021,-31.65667 10.21229,-6.03212 -2.99038,-12.75947 -9.99548,-9.93024 -172.91177,-0.40081 -345.82939,-0.96023 -518.7375,-1.25858 z"
       style="opacity:1;fill:#333333;stroke-width:14.646" />
  </g>
</svg>
