<?xml version="1.0" encoding="utf-8"?>
<!-- Svg Vector Icons : http://www.onlinewebfonts.com/icon -->
<!DOCTYPE svg PUBLIC "-//W3C//DTD SVG 1.1//EN" "http://www.w3.org/Graphics/SVG/1.1/DTD/svg11.dtd">
<svg version="1.1" xmlns="http://www.w3.org/2000/svg" xmlns:xlink="http://www.w3.org/1999/xlink" x="0px" y="0px" viewBox="0 0 1000 1000" enable-background="new 0 0 1000 1000" xml:space="preserve">
<metadata> Svg Vector Icons : http://www.onlinewebfonts.com/icon </metadata>
<g><g transform="translate(0.000000,512.000000) scale(0.100000,-0.100000)"><path d="M3945.1,4998.8c-342.9-76.6-655.1-321.8-800.7-624.5c-92-193.5-118.8-310.3-118.8-528.7c0-532.5,356.3-994.2,871.6-1126.3c151.3-38.3,434.8-38.3,588.1,0c417.6,109.2,760.5,467.4,850.5,892.6c38.3,176.2,26.8,417.6-28.7,591.9c-111.1,354.4-411.8,657-768.1,768.1C4374.2,5023.7,4108,5035.2,3945.1,4998.8z"/><path d="M6015.8,4152.1c-9.6-40.2-28.7-109.2-40.2-153.2c-13.4-57.5-30.7-82.4-53.6-82.4c-57.5,0-149.4-70.9-182-139.8c-28.7-57.5-32.6-137.9-32.6-553.6c0-423.3,3.8-492.3,34.5-551.7c44.1-88.1,143.7-153.2,235.6-153.2c72.8,0,74.7-1.9,74.7-70.9c0-59.4-11.5-82.4-67-126.4c-111.1-90-170.5-212.6-172.4-358.2c0-69,5.8-145.6,13.4-172.4c15.3-47.9,11.5-49.8-486.5-212.6L4839.7,1411L4378,1838.2c-254.8,235.6-503.8,463.6-557.4,505.7c-118.8,99.6-398.4,239.4-565.1,283.5c-170.5,46-488.5,44.1-641.7,0c-208.8-63.2-289.2-132.2-488.5-427.2c-97.7-147.5-365.9-532.5-591.9-860.1c-227.9-325.6-450.1-657-494.2-733.6c-226-400.4-331.4-858.2-275.8-1222.1c13.4-84.3,103.4-953.9,201.1-1934.7c199.2-1971.1,185.8-1892.5,341-2051.5c344.8-352.4,953.9-132.2,986.5,356.3c5.7,74.7-28.7,486.5-78.5,996.1c-49.8,478.9-86.2,871.5-82.4,875.4c3.8,3.8,203-471.2,442.5-1055.5c484.6-1174.2,490.4-1185.7,697.3-1287.2c90-44.1,134.1-53.6,252.9-53.6c245.2,0,425.3,118.8,532.5,350.5c38.3,88.1,44.1,122.6,38.3,249c-7.7,143.7-28.7,197.3-689.6,1800.6l-680,1655l582.3,854.3c321.8,471.2,586.1,858.2,588.1,860.1c1.9,1.9,162.8-141.8,356.3-319.9c195.4-180.1,364-325.6,375.4-325.6c11.5,0,258.6,82.4,549.8,182c293.1,99.6,530.6,172.4,530.6,160.9s-237.5-1214.4-528.7-2672.2c-289.2-1459.6-521-2670.3-515.3-2689.4c17.2-51.7,101.5-114.9,155.2-114.9c23,0,67,19.2,95.8,44.1c49.8,42.1,61.3,95.8,245.2,1030.6l195.4,984.6l233.7,5.7l233.7,5.8v151.3v153.3h-203.1c-183.9,0-203,3.8-195.4,34.5c5.7,17.2,151.3,747.1,323.7,1618.6c254.8,1283.4,319.9,1591.8,348.6,1605.2c30.6,17.2,32.6-118.8,32.6-2750.7v-2771.8l55.5-55.5c34.5-32.6,76.6-55.6,107.3-55.6c30.6,0,72.8,23,107.3,55.6l55.6,55.5v978.8v978.8l386.9-3.8l386.9-5.7l195.4-984.6c183.9-934.8,197.3-988.4,245.2-1030.6c28.7-24.9,72.8-44.1,99.6-44.1c51.7,0,160.9,93.9,160.9,137.9c0,13.4-279.7,1432.8-622.5,3154.9l-622.6,3131.9l42.2,86.2c67,132.2,61.3,325.6-9.6,446.3c-28.7,49.8-82.4,114.9-118.8,143.7c-55.5,44.1-67,67-67,126.4c0,69,1.9,70.9,74.7,70.9c92,0,193.5,65.1,231.8,147.5l28.7,63.2h216.4h214.5V2681v-47.9h632.1h632.1v-57.5v-57.5h344.8h344.8v708.7v708.8l-348.6-3.8l-350.5-5.7l-5.7-229.9c-5.7-247.1-24.9-296.9-113-296.9c-90,0-120.7,61.3-120.7,239.4v162.8h-507.6h-507.6v-47.9v-47.9h-216.4h-216.5l-24.9,69c-28.7,76.6-107.3,134.1-216.4,151.3c-76.6,13.4-70.9,3.8-126.4,220.3l-15.3,67l-224.1,5.7l-222.2,5.8L6015.8,4152.1z M7887.3,3535.3c11.5-72.8-42.1-97.7-199.2-97.7c-139.8,0-199.2,24.9-199.2,84.3c0,55.5,47.9,70.9,220.3,65.1C7875.8,3581.3,7881.6,3579.4,7887.3,3535.3z M7161.3-2389.4c1.9-9.6-157.1-15.3-352.5-15.3h-354.4l1.9,1768l1.9,1766.1l350.5-1752.7C7002.3-1586.8,7161.3-2381.7,7161.3-2389.4z"/></g></g>
</svg>